<?xml version="1.0" encoding="UTF-8" standalone="no"?>
<svg width="114.3mm" height="139.7mm"
 viewBox="0 0 324 396"
 xmlns="http://www.w3.org/2000/svg" xmlns:xlink="http://www.w3.org/1999/xlink"  version="1.2" baseProfile="tiny">
<title>Qt SVG Document</title>
<desc>Generated with Qt</desc>
<defs>
</defs>
<g fill="none" stroke="black" stroke-width="1" fill-rule="evenodd" stroke-linecap="square" stroke-linejoin="bevel" >

<g fill="#ffffff" fill-opacity="1" stroke="none" transform="matrix(1,0,0,1,0,0)"
font-family="MS Shell Dlg 2" font-size="8.25" font-weight="400" font-style="normal" 
>
<path vector-effect="none" fill-rule="evenodd" d="M0,0 L324,0 L324,396 L0,396 L0,0"/>
</g>

<g fill="#0000ff" fill-opacity="1" stroke="none" transform="matrix(1,0,0,1,0,0)"
font-family="MS Shell Dlg 2" font-size="8.25" font-weight="400" font-style="normal" 
>
<path vector-effect="none" fill-rule="evenodd" d="M142,98 L239,79 L122,79 L122,159 L142,98"/>
</g>

<g fill="none" stroke="#0000ff" stroke-opacity="1" stroke-width="2" stroke-linecap="round" stroke-linejoin="round" transform="matrix(1,0,0,1,0,0)"
font-family="MS Shell Dlg 2" font-size="8.25" font-weight="400" font-style="normal" 
>
<polyline fill="none" vector-effect="none" points="53,46 278,46 " />
<polyline fill="none" vector-effect="none" points="278,46 278,188 " />
<polyline fill="none" vector-effect="none" points="278,188 53,188 " />
<polyline fill="none" vector-effect="none" points="53,188 53,46 " />
</g>

<g fill="#0000ff" fill-opacity="1" stroke="none" transform="matrix(1,0,0,1,0,0)"
font-family="MS Shell Dlg 2" font-size="8.25" font-weight="400" font-style="normal" 
>
<path vector-effect="none" fill-rule="evenodd" d="M54,46 C54,46.5523 53.5523,47 53,47 C52.4477,47 52,46.5523 52,46 C52,45.4477 52.4477,45 53,45 C53.5523,45 54,45.4477 54,46 "/>
</g>

<g fill="none" stroke="#0000ff" stroke-opacity="1" stroke-width="2" stroke-linecap="round" stroke-linejoin="round" transform="matrix(1,0,0,1,0,0)"
font-family="MS Shell Dlg 2" font-size="8.25" font-weight="400" font-style="normal" 
>
</g>

<g fill="#0000ff" fill-opacity="1" stroke="none" transform="matrix(1,0,0,1,0,0)"
font-family="MS Shell Dlg 2" font-size="8.25" font-weight="400" font-style="normal" 
>
<path vector-effect="none" fill-rule="evenodd" d="M54,46 C54,46.5523 53.5523,47 53,47 C52.4477,47 52,46.5523 52,46 C52,45.4477 52.4477,45 53,45 C53.5523,45 54,45.4477 54,46 "/>
</g>

<g fill="none" stroke="#0000ff" stroke-opacity="1" stroke-width="2" stroke-linecap="round" stroke-linejoin="round" transform="matrix(1,0,0,1,0,0)"
font-family="MS Shell Dlg 2" font-size="8.25" font-weight="400" font-style="normal" 
>
</g>

<g fill="#0000ff" fill-opacity="1" stroke="none" transform="matrix(1,0,0,1,0,0)"
font-family="MS Shell Dlg 2" font-size="8.25" font-weight="400" font-style="normal" 
>
<path vector-effect="none" fill-rule="evenodd" d="M54,46 C54,46.5523 53.5523,47 53,47 C52.4477,47 52,46.5523 52,46 C52,45.4477 52.4477,45 53,45 C53.5523,45 54,45.4477 54,46 "/>
</g>

<g fill="none" stroke="#0000ff" stroke-opacity="1" stroke-width="2" stroke-linecap="round" stroke-linejoin="round" transform="matrix(1,0,0,1,0,0)"
font-family="MS Shell Dlg 2" font-size="8.25" font-weight="400" font-style="normal" 
>
</g>

<g fill="#0000ff" fill-opacity="1" stroke="none" transform="matrix(1,0,0,1,0,0)"
font-family="MS Shell Dlg 2" font-size="8.25" font-weight="400" font-style="normal" 
>
<path vector-effect="none" fill-rule="evenodd" d="M54,46 C54,46.5523 53.5523,47 53,47 C52.4477,47 52,46.5523 52,46 C52,45.4477 52.4477,45 53,45 C53.5523,45 54,45.4477 54,46 "/>
</g>

<g fill="none" stroke="#0000ff" stroke-opacity="1" stroke-width="2" stroke-linecap="round" stroke-linejoin="round" transform="matrix(1,0,0,1,0,0)"
font-family="MS Shell Dlg 2" font-size="8.25" font-weight="400" font-style="normal" 
>
</g>

<g fill="#0000ff" fill-opacity="1" stroke="none" transform="matrix(1,0,0,1,0,0)"
font-family="MS Shell Dlg 2" font-size="8.25" font-weight="400" font-style="normal" 
>
<path vector-effect="none" fill-rule="evenodd" d="M279,188 C279,188.552 278.552,189 278,189 C277.448,189 277,188.552 277,188 C277,187.448 277.448,187 278,187 C278.552,187 279,187.448 279,188 "/>
</g>

<g fill="none" stroke="#0000ff" stroke-opacity="1" stroke-width="2" stroke-linecap="round" stroke-linejoin="round" transform="matrix(1,0,0,1,0,0)"
font-family="MS Shell Dlg 2" font-size="8.25" font-weight="400" font-style="normal" 
>
</g>

<g fill="#0000ff" fill-opacity="1" stroke="none" transform="matrix(1,0,0,1,0,0)"
font-family="MS Shell Dlg 2" font-size="8.25" font-weight="400" font-style="normal" 
>
<path vector-effect="none" fill-rule="evenodd" d="M279,188 C279,188.552 278.552,189 278,189 C277.448,189 277,188.552 277,188 C277,187.448 277.448,187 278,187 C278.552,187 279,187.448 279,188 "/>
</g>

<g fill="none" stroke="#0000ff" stroke-opacity="1" stroke-width="2" stroke-linecap="round" stroke-linejoin="round" transform="matrix(1,0,0,1,0,0)"
font-family="MS Shell Dlg 2" font-size="8.25" font-weight="400" font-style="normal" 
>
</g>

<g fill="#0000ff" fill-opacity="1" stroke="none" transform="matrix(1,0,0,1,0,0)"
font-family="MS Shell Dlg 2" font-size="8.25" font-weight="400" font-style="normal" 
>
<path vector-effect="none" fill-rule="evenodd" d="M279,188 C279,188.552 278.552,189 278,189 C277.448,189 277,188.552 277,188 C277,187.448 277.448,187 278,187 C278.552,187 279,187.448 279,188 "/>
</g>

<g fill="none" stroke="#0000ff" stroke-opacity="1" stroke-width="2" stroke-linecap="round" stroke-linejoin="round" transform="matrix(1,0,0,1,0,0)"
font-family="MS Shell Dlg 2" font-size="8.25" font-weight="400" font-style="normal" 
>
</g>

<g fill="#0000ff" fill-opacity="1" stroke="none" transform="matrix(1,0,0,1,0,0)"
font-family="MS Shell Dlg 2" font-size="8.25" font-weight="400" font-style="normal" 
>
<path vector-effect="none" fill-rule="evenodd" d="M279,188 C279,188.552 278.552,189 278,189 C277.448,189 277,188.552 277,188 C277,187.448 277.448,187 278,187 C278.552,187 279,187.448 279,188 "/>
</g>

<g fill="none" stroke="#0000ff" stroke-opacity="1" stroke-width="2" stroke-linecap="round" stroke-linejoin="round" transform="matrix(1,0,0,1,0,0)"
font-family="MS Shell Dlg 2" font-size="8.25" font-weight="400" font-style="normal" 
>
<polyline fill="none" vector-effect="none" points="122,79 239,79 " />
<polyline fill="none" vector-effect="none" points="239,79 239,159 " />
<polyline fill="none" vector-effect="none" points="239,159 122,159 " />
<polyline fill="none" vector-effect="none" points="122,159 122,79 " />
<polyline fill="none" vector-effect="none" points="53,46 122,79 " />
<polyline fill="none" vector-effect="none" points="239,79 278,46 " />
<polyline fill="none" vector-effect="none" points="122,159 53,188 " />
<polyline fill="none" vector-effect="none" points="239,159 278,188 " />
<polyline fill="none" vector-effect="none" points="122,159 142,98 " />
<polyline fill="none" vector-effect="none" points="142,98 239,79 " />
<polyline fill="none" vector-effect="none" points="239,79 122,79 " />
<polyline fill="none" vector-effect="none" points="122,79 122,159 " />
</g>

<g fill="none" stroke="#ffffff" stroke-opacity="1" stroke-width="1" stroke-linecap="round" stroke-linejoin="round" transform="matrix(1,0,0,1,0,0)"
font-family="MS Shell Dlg 2" font-size="8.25" font-weight="400" font-style="normal" 
>
<polyline fill="none" vector-effect="non-scaling-stroke" points="53,223 278,223 " />
<polyline fill="none" vector-effect="non-scaling-stroke" points="57,219 50,226 " />
<polyline fill="none" vector-effect="non-scaling-stroke" points="282,219 275,226 " />
<polyline fill="none" vector-effect="non-scaling-stroke" points="159,208 162,208 " />
<polyline fill="none" vector-effect="non-scaling-stroke" points="165,211 165,210 164,209 163,208 162,208 " />
<polyline fill="none" vector-effect="non-scaling-stroke" points="165,211 165,219 " />
<polyline fill="none" vector-effect="non-scaling-stroke" points="165,219 161,219 " />
<polyline fill="none" vector-effect="non-scaling-stroke" points="161,213 159,214 158,215 158,216 158,217 159,218 160,219 161,219 " />
<polyline fill="none" vector-effect="non-scaling-stroke" points="161,213 165,213 " />
<polyline fill="none" vector-effect="non-scaling-stroke" points="170,206 174,203 " />
<polyline fill="none" vector-effect="non-scaling-stroke" points="174,203 174,219 " />
<polyline fill="none" vector-effect="non-scaling-stroke" points="53,191 53,226 " />
<polyline fill="none" vector-effect="non-scaling-stroke" points="278,191 278,226 " />
<polyline fill="none" vector-effect="non-scaling-stroke" points="122,20 239,20 " />
<polyline fill="none" vector-effect="non-scaling-stroke" points="126,16 119,24 " />
<polyline fill="none" vector-effect="non-scaling-stroke" points="243,16 235,24 " />
<polyline fill="none" vector-effect="non-scaling-stroke" points="172,5 175,5 " />
<polyline fill="none" vector-effect="non-scaling-stroke" points="178,8 178,7 177,6 176,5 175,5 " />
<polyline fill="none" vector-effect="non-scaling-stroke" points="178,8 178,16 " />
<polyline fill="none" vector-effect="non-scaling-stroke" points="178,16 174,16 " />
<polyline fill="none" vector-effect="non-scaling-stroke" points="174,11 172,11 171,12 171,13 171,14 172,16 173,16 174,16 " />
<polyline fill="none" vector-effect="non-scaling-stroke" points="174,11 178,11 " />
<polyline fill="none" vector-effect="non-scaling-stroke" points="183,3 184,2 " />
<polyline fill="none" vector-effect="non-scaling-stroke" points="190,5 190,4 190,2 189,1 187,0 186,0 184,1 184,2 " />
<polyline fill="none" vector-effect="non-scaling-stroke" points="190,5 183,16 " />
<polyline fill="none" vector-effect="non-scaling-stroke" points="183,16 190,16 " />
<polyline fill="none" vector-effect="non-scaling-stroke" points="122,77 122,17 " />
<polyline fill="none" vector-effect="non-scaling-stroke" points="239,77 239,17 " />
<polyline fill="none" vector-effect="non-scaling-stroke" points="21,46 21,188 " />
<polyline fill="none" vector-effect="non-scaling-stroke" points="25,50 17,42 " />
<polyline fill="none" vector-effect="non-scaling-stroke" points="25,192 17,185 " />
<polyline fill="none" vector-effect="non-scaling-stroke" points="1,125 17,125 " />
<polyline fill="none" vector-effect="non-scaling-stroke" points="17,125 17,121 " />
<polyline fill="none" vector-effect="non-scaling-stroke" points="17,121 17,119 16,118 14,118 " />
<polyline fill="none" vector-effect="non-scaling-stroke" points="14,118 9,118 " />
<polyline fill="none" vector-effect="non-scaling-stroke" points="9,118 8,118 7,119 6,120 6,121 " />
<polyline fill="none" vector-effect="non-scaling-stroke" points="6,121 6,125 " />
<polyline fill="none" vector-effect="non-scaling-stroke" points="5,113 1,109 " />
<polyline fill="none" vector-effect="non-scaling-stroke" points="1,109 17,109 " />
<polyline fill="none" vector-effect="non-scaling-stroke" points="51,46 18,46 " />
<polyline fill="none" vector-effect="non-scaling-stroke" points="51,188 18,188 " />
<polyline fill="none" vector-effect="non-scaling-stroke" points="320,79 320,159 " />
<polyline fill="none" vector-effect="non-scaling-stroke" points="324,83 317,76 " />
<polyline fill="none" vector-effect="non-scaling-stroke" points="324,162 317,155 " />
<polyline fill="none" vector-effect="non-scaling-stroke" points="300,129 316,129 " />
<polyline fill="none" vector-effect="non-scaling-stroke" points="316,129 316,124 " />
<polyline fill="none" vector-effect="non-scaling-stroke" points="316,124 316,123 315,122 314,122 " />
<polyline fill="none" vector-effect="non-scaling-stroke" points="314,122 308,122 " />
<polyline fill="none" vector-effect="non-scaling-stroke" points="308,122 307,122 306,123 306,124 " />
<polyline fill="none" vector-effect="non-scaling-stroke" points="306,124 306,129 " />
<polyline fill="none" vector-effect="non-scaling-stroke" points="303,116 302,116 " />
<polyline fill="none" vector-effect="non-scaling-stroke" points="306,110 304,109 302,110 301,111 300,112 301,114 302,116 " />
<polyline fill="none" vector-effect="non-scaling-stroke" points="306,110 316,116 " />
<polyline fill="none" vector-effect="non-scaling-stroke" points="316,116 316,109 " />
<polyline fill="none" vector-effect="non-scaling-stroke" points="242,79 323,79 " />
<polyline fill="none" vector-effect="non-scaling-stroke" points="242,159 323,159 " />
<polyline fill="none" vector-effect="non-scaling-stroke" points="53,20 122,20 " />
<polyline fill="none" vector-effect="non-scaling-stroke" points="57,16 50,24 " />
<polyline fill="none" vector-effect="non-scaling-stroke" points="126,16 119,24 " />
<polyline fill="none" vector-effect="non-scaling-stroke" points="85,0 85,16 " />
<polyline fill="none" vector-effect="non-scaling-stroke" points="85,16 81,16 " />
<polyline fill="none" vector-effect="non-scaling-stroke" points="78,13 78,15 79,16 81,16 " />
<polyline fill="none" vector-effect="non-scaling-stroke" points="78,13 78,8 " />
<polyline fill="none" vector-effect="non-scaling-stroke" points="81,5 80,6 79,7 78,8 " />
<polyline fill="none" vector-effect="non-scaling-stroke" points="81,5 85,5 " />
<polyline fill="none" vector-effect="non-scaling-stroke" points="91,5 95,5 " />
<polyline fill="none" vector-effect="non-scaling-stroke" points="98,8 97,7 96,6 95,5 " />
<polyline fill="none" vector-effect="non-scaling-stroke" points="98,8 98,16 " />
<polyline fill="none" vector-effect="non-scaling-stroke" points="98,16 93,16 " />
<polyline fill="none" vector-effect="non-scaling-stroke" points="93,11 92,11 91,12 91,13 91,14 92,16 93,16 " />
<polyline fill="none" vector-effect="non-scaling-stroke" points="93,11 98,11 " />
<polyline fill="none" vector-effect="non-scaling-stroke" points="53,43 53,17 " />
<polyline fill="none" vector-effect="non-scaling-stroke" points="122,77 122,17 " />
<polyline fill="none" vector-effect="non-scaling-stroke" points="320,46 320,79 " />
<polyline fill="none" vector-effect="non-scaling-stroke" points="324,50 317,42 " />
<polyline fill="none" vector-effect="non-scaling-stroke" points="324,83 317,76 " />
<polyline fill="none" vector-effect="non-scaling-stroke" points="300,65 316,65 " />
<polyline fill="none" vector-effect="non-scaling-stroke" points="316,65 316,70 " />
<polyline fill="none" vector-effect="non-scaling-stroke" points="314,72 315,72 316,71 316,70 " />
<polyline fill="none" vector-effect="non-scaling-stroke" points="314,72 308,72 " />
<polyline fill="none" vector-effect="non-scaling-stroke" points="306,70 306,71 307,72 308,72 " />
<polyline fill="none" vector-effect="non-scaling-stroke" points="306,70 306,65 " />
<polyline fill="none" vector-effect="non-scaling-stroke" points="300,60 316,60 " />
<polyline fill="none" vector-effect="non-scaling-stroke" points="316,60 316,56 " />
<polyline fill="none" vector-effect="non-scaling-stroke" points="316,56 316,54 315,53 314,53 " />
<polyline fill="none" vector-effect="non-scaling-stroke" points="314,53 308,53 " />
<polyline fill="none" vector-effect="non-scaling-stroke" points="308,53 307,53 306,54 306,55 306,56 " />
<polyline fill="none" vector-effect="non-scaling-stroke" points="306,56 306,60 " />
<polyline fill="none" vector-effect="non-scaling-stroke" points="281,46 323,46 " />
<polyline fill="none" vector-effect="non-scaling-stroke" points="242,79 323,79 " />
</g>

<g fill="none" stroke="#0000ff" stroke-opacity="1" stroke-width="2" stroke-linecap="round" stroke-linejoin="round" transform="matrix(1,0,0,1,0,0)"
font-family="MS Shell Dlg 2" font-size="8.25" font-weight="400" font-style="normal" 
>
<polyline fill="none" vector-effect="none" points="54,268 276,268 " />
<polyline fill="none" vector-effect="none" points="276,268 276,282 " />
<polyline fill="none" vector-effect="none" points="276,282 54,282 " />
<polyline fill="none" vector-effect="none" points="54,282 54,268 " />
<polyline fill="none" vector-effect="none" points="121,360 238,360 " />
<polyline fill="none" vector-effect="none" points="238,360 238,376 " />
<polyline fill="none" vector-effect="none" points="238,376 121,376 " />
<polyline fill="none" vector-effect="none" points="121,376 121,361 " />
<polyline fill="none" vector-effect="none" points="54,282 121,361 " />
<polyline fill="none" vector-effect="none" points="276,282 238,360 " />
</g>

<g fill="none" stroke="#ffffff" stroke-opacity="1" stroke-width="1" stroke-linecap="round" stroke-linejoin="round" transform="matrix(1,0,0,1,0,0)"
font-family="MS Shell Dlg 2" font-size="8.25" font-weight="400" font-style="normal" 
>
<polyline fill="none" vector-effect="non-scaling-stroke" points="21,268 21,376 " />
<polyline fill="none" vector-effect="non-scaling-stroke" points="25,271 17,264 " />
<polyline fill="none" vector-effect="non-scaling-stroke" points="25,380 17,372 " />
<polyline fill="none" vector-effect="non-scaling-stroke" points="17,325 1,325 " />
<polyline fill="none" vector-effect="non-scaling-stroke" points="6,325 6,321 " />
<polyline fill="none" vector-effect="non-scaling-stroke" points="9,318 8,319 7,319 6,321 " />
<polyline fill="none" vector-effect="non-scaling-stroke" points="9,318 17,318 " />
<polyline fill="none" vector-effect="non-scaling-stroke" points="52,268 18,268 " />
<polyline fill="none" vector-effect="non-scaling-stroke" points="119,376 18,376 " />
<polyline fill="none" vector-effect="non-scaling-stroke" points="321,396 321,340 " />
<polyline fill="none" vector-effect="non-scaling-stroke" points="325,380 318,372 " />
<polyline fill="none" vector-effect="non-scaling-stroke" points="325,363 318,356 " />
<polyline fill="none" vector-effect="non-scaling-stroke" points="317,354 304,354 " />
<polyline fill="none" vector-effect="non-scaling-stroke" points="301,351 302,352 303,353 304,354 " />
<polyline fill="none" vector-effect="non-scaling-stroke" points="301,351 301,350 " />
<polyline fill="none" vector-effect="non-scaling-stroke" points="307,356 307,350 " />
<polyline fill="none" vector-effect="non-scaling-stroke" points="304,345 303,344 " />
<polyline fill="none" vector-effect="non-scaling-stroke" points="307,338 305,338 303,338 302,339 301,341 302,343 303,344 " />
<polyline fill="none" vector-effect="non-scaling-stroke" points="307,338 317,345 " />
<polyline fill="none" vector-effect="non-scaling-stroke" points="317,345 317,338 " />
<polyline fill="none" vector-effect="non-scaling-stroke" points="241,376 324,376 " />
<polyline fill="none" vector-effect="non-scaling-stroke" points="241,360 324,360 " />
<polyline fill="none" vector-effect="non-scaling-stroke" points="321,248 321,302 " />
<polyline fill="none" vector-effect="non-scaling-stroke" points="318,264 325,271 " />
<polyline fill="none" vector-effect="non-scaling-stroke" points="318,278 325,286 " />
<polyline fill="none" vector-effect="non-scaling-stroke" points="316,260 303,260 " />
<polyline fill="none" vector-effect="non-scaling-stroke" points="300,257 301,258 301,259 303,260 " />
<polyline fill="none" vector-effect="non-scaling-stroke" points="300,257 300,256 " />
<polyline fill="none" vector-effect="non-scaling-stroke" points="306,262 306,256 " />
<polyline fill="none" vector-effect="non-scaling-stroke" points="304,251 300,247 " />
<polyline fill="none" vector-effect="non-scaling-stroke" points="300,247 316,247 " />
<polyline fill="none" vector-effect="non-scaling-stroke" points="279,268 324,268 " />
<polyline fill="none" vector-effect="non-scaling-stroke" points="279,282 324,282 " />
</g>

<g fill="none" stroke="#ff0000" stroke-opacity="1" stroke-width="2" stroke-linecap="round" stroke-linejoin="round" transform="matrix(1,0,0,1,0,0)"
font-family="MS Shell Dlg 2" font-size="8.25" font-weight="400" font-style="normal" 
>
<polyline fill="none" vector-effect="none" points="167,66 176,66 " />
<polyline fill="none" vector-effect="none" points="165,71 171,51 " />
<polyline fill="none" vector-effect="none" points="171,51 178,71 " />
<polyline fill="none" vector-effect="none" points="172,172 167,172 " />
<polyline fill="none" vector-effect="none" points="172,172 174,172 176,171 177,169 177,167 176,165 174,164 172,163 " />
<polyline fill="none" vector-effect="none" points="172,163 167,163 " />
<polyline fill="none" vector-effect="none" points="167,163 167,183 " />
<polyline fill="none" vector-effect="none" points="167,183 172,183 " />
<polyline fill="none" vector-effect="none" points="172,183 174,183 176,182 177,180 178,178 178,176 177,175 175,173 174,172 172,172 " />
<polyline fill="none" vector-effect="none" points="83,125 79,125 " />
<polyline fill="none" vector-effect="none" points="74,121 75,123 76,124 78,125 79,125 " />
<polyline fill="none" vector-effect="none" points="74,121 74,110 " />
<polyline fill="none" vector-effect="none" points="79,105 77,106 75,107 74,109 74,110 " />
<polyline fill="none" vector-effect="none" points="79,105 83,105 " />
<polyline fill="none" vector-effect="none" points="254,128 260,128 " />
<polyline fill="none" vector-effect="none" points="260,128 262,128 264,127 265,125 265,124 " />
<polyline fill="none" vector-effect="none" points="265,124 265,113 " />
<polyline fill="none" vector-effect="none" points="265,113 264,111 263,109 261,108 260,108 " />
<polyline fill="none" vector-effect="none" points="260,108 254,108 " />
<polyline fill="none" vector-effect="none" points="254,108 254,128 " />
</g>
</g>
</svg>
